<svg xmlns="http://www.w3.org/2000/svg" xmlns:xlink="http://www.w3.org/1999/xlink" width="1346" height="596" viewBox="0 0 1346 596"><defs><style>.a,.b{fill:none;}.b{stroke:rgba(0,0,0,0.12);stroke-dasharray:6 2;}.c,.h{fill:#6b778c;font-family:Roboto-Regular, Roboto;letter-spacing:-0.025em;}.c{font-size:16px;}.d{fill:#8aae15;}.e{fill:#e53935;}.f{fill:#4051b5;}.g{fill:#f38200;}.h{font-size:14px;}.i{font-family:NotoSansCJKkr-Regular, Noto Sans CJK KR;}.j{filter:url(#a);}</style><filter id="a" x="0" y="0" width="1346" height="596" filterUnits="userSpaceOnUse"><feOffset dx="2" dy="2" input="SourceAlpha"/><feGaussianBlur stdDeviation="1" result="b"/><feFlood flood-color="#3f3f44" flood-opacity="0.051"/><feComposite operator="in" in2="b"/><feComposite in="SourceGraphic"/></filter></defs><g transform="translate(-163 -1575)"><g class="j" transform="matrix(1, 0, 0, 1, 163, 1575)"><path class="a" d="M0,0H1340V590H0V0Z" transform="translate(1 1)"/></g><g transform="translate(-104 1146)"><line class="b" x2="1171.979" transform="translate(391 953.5)"/><line class="b" x2="1171" transform="translate(391 833.5)"/><line class="b" x2="1171" transform="translate(391 714.5)"/><line class="b" x2="1171" transform="translate(391 594.5)"/><line class="b" x2="1171" transform="translate(391 474.5)"/></g><text class="c" transform="translate(244 2107)"><tspan x="0" y="0">0</tspan></text><text class="c" transform="translate(198 1987)"><tspan x="0" y="0">200,000</tspan></text><text class="c" transform="translate(198 1867)"><tspan x="0" y="0">400,000</tspan></text><text class="c" transform="translate(198 1747)"><tspan x="0" y="0">600,000</tspan></text><text class="c" transform="translate(198 1627)"><tspan x="0" y="0">800,000</tspan></text><g transform="translate(-92 1146)"><rect class="d" width="12" height="242" transform="translate(432 712)"/><path class="e" d="M0,0H12V69H0Z" transform="translate(446 885)"/><path class="f" d="M0,0H12V118H0Z" transform="translate(460 836)"/><path class="g" d="M0,0H12V294H0Z" transform="translate(474 660)"/><text class="h" transform="translate(413 982)"><tspan x="0" y="0">2021.09.19 (</tspan><tspan class="i" y="0">일)</tspan></text></g><g transform="translate(965 1146)"><rect class="d" width="12" height="242" transform="translate(432 712)"/><path class="e" d="M0,0H12V69H0Z" transform="translate(446 885)"/><path class="f" d="M0,0H12V118H0Z" transform="translate(460 836)"/><path class="g" d="M0,0H12V294H0Z" transform="translate(474 660)"/><text class="h" transform="translate(413 982)"><tspan x="0" y="0">2021.09.19 (</tspan><tspan class="i" y="0">일)</tspan></text></g><g transform="translate(789 1146)"><rect class="d" width="12" height="242" transform="translate(432 712)"/><path class="e" d="M0,0H12V69H0Z" transform="translate(446 885)"/><path class="f" d="M0,0H12V118H0Z" transform="translate(460 836)"/><path class="g" d="M0,0H12V294H0Z" transform="translate(474 660)"/><text class="h" transform="translate(413 982)"><tspan x="0" y="0">2021.09.19 (</tspan><tspan class="i" y="0">일)</tspan></text></g><g transform="translate(613 1146)"><rect class="d" width="12" height="242" transform="translate(432 712)"/><path class="e" d="M0,0H12V69H0Z" transform="translate(446 885)"/><path class="f" d="M0,0H12V118H0Z" transform="translate(460 836)"/><path class="g" d="M0,0H12V294H0Z" transform="translate(474 660)"/><text class="h" transform="translate(413 982)"><tspan x="0" y="0">2021.09.19 (</tspan><tspan class="i" y="0">일)</tspan></text></g><g transform="translate(437 1146)"><rect class="d" width="12" height="242" transform="translate(432 712)"/><path class="e" d="M0,0H12V69H0Z" transform="translate(446 885)"/><path class="f" d="M0,0H12V118H0Z" transform="translate(460 836)"/><path class="g" d="M0,0H12V294H0Z" transform="translate(474 660)"/><text class="h" transform="translate(413 982)"><tspan x="0" y="0">2021.09.19 (</tspan><tspan class="i" y="0">일)</tspan></text></g><g transform="translate(260 1146)"><rect class="d" width="12" height="242" transform="translate(432 712)"/><path class="e" d="M0,0H12V69H0Z" transform="translate(446 885)"/><path class="f" d="M0,0H12V118H0Z" transform="translate(460 836)"/><path class="g" d="M0,0H12V294H0Z" transform="translate(474 660)"/><text class="h" transform="translate(413 982)"><tspan x="0" y="0">2021.09.19 (</tspan><tspan class="i" y="0">일)</tspan></text></g><g transform="translate(84 1146)"><rect class="d" width="12" height="242" transform="translate(432 712)"/><path class="e" d="M0,0H12V69H0Z" transform="translate(446 885)"/><path class="f" d="M0,0H12V118H0Z" transform="translate(460 836)"/><path class="g" d="M0,0H12V294H0Z" transform="translate(474 660)"/><text class="h" transform="translate(413 982)"><tspan x="0" y="0">2021.09.19 (</tspan><tspan class="i" y="0">일)</tspan></text></g></g></svg>