<svg xmlns="http://www.w3.org/2000/svg" width="170.145" height="34.029" viewBox="0 0 170.145 34.029"><defs><style>.a{fill:#f38200;}.b{fill:#8aae15;}</style></defs><g transform="translate(-233.872 -204.957)"><g transform="translate(233.872 204.971)"><g transform="translate(0 6.416)"><path class="a" d="M260.2,223.237v.016c.172-.011.35-.016.528-.016Z" transform="translate(-246.649 -219.727)"/><path class="a" d="M259.89,234.36a13.633,13.633,0,0,1-3.1.21,9.814,9.814,0,0,1-2.406,2.966c-.1.081-.194.156-.291.232a3.424,3.424,0,0,1-.366.274,1.015,1.015,0,0,1-.1.07c-.162.113-.328.221-.5.323-.134.086-.28.167-.419.242-.178.1-.361.188-.544.274-.108.054-.221.1-.328.145a8.8,8.8,0,0,1-.915.339,8.3,8.3,0,0,1-.953.248,8.66,8.66,0,0,1-.991.15,8.972,8.972,0,0,1-1.018.054h-.016a9.978,9.978,0,0,1-4.651-18.8,10.428,10.428,0,0,1,0-1.163,13.791,13.791,0,0,1,.587-3.51,13.806,13.806,0,0,0-3.957,1.906v.011a14.088,14.088,0,0,0,0,23.148V244h8.037a14.107,14.107,0,0,0,13.491-10.013A15.7,15.7,0,0,1,259.89,234.36Z" transform="translate(-233.872 -216.417)"/></g><g transform="translate(9.41 0)"><path class="b" d="M270.922,223.767a14.109,14.109,0,0,0-13.491-13.49,7.413,7.413,0,0,1,.484-.818,7.707,7.707,0,0,1,.592-.807,8.884,8.884,0,0,1,.678-.759l.011-.011-.011.011-2.907-2.907h0a13.952,13.952,0,0,0-3.52,5.884,13.791,13.791,0,0,0-.587,3.51,10.436,10.436,0,0,0,0,1.163,14.062,14.062,0,0,0,13.49,13.48,13.631,13.631,0,0,0,3.1-.21,15.694,15.694,0,0,0,1.567-.372,14,14,0,0,0,.6-4.08C270.932,224.16,270.927,223.961,270.922,223.767Zm-11.736-1.76a9.893,9.893,0,0,1-2.891-7.612v-.016h.543a9.094,9.094,0,0,1,1.018.054,8.656,8.656,0,0,1,.991.151,8.4,8.4,0,0,1,.953.248,8.915,8.915,0,0,1,.915.339c.108.043.221.092.328.146.183.086.366.178.544.274.139.076.285.156.419.242.167.1.334.21.5.323a1.122,1.122,0,0,1,.1.07,3.35,3.35,0,0,1,.366.274c.1.075.194.151.291.232a9.911,9.911,0,0,1,3.564,7.628c0,.183-.005.361-.016.538A9.907,9.907,0,0,1,259.186,222.007Z" transform="translate(-252.156 -204.985)"/></g></g><g transform="translate(273.534 204.957)"><path class="a" d="M321.415,213.665a18.2,18.2,0,0,1-3.16,3.852,20.3,20.3,0,0,1-5.49,3.572q-.277.16-.435-.161l-1.343-3.05c-.105-.187-.053-.334.159-.441a17.8,17.8,0,0,0,2.705-1.545,18.285,18.285,0,0,0,2.015-1.625,13.079,13.079,0,0,0,1.442-1.585,14.4,14.4,0,0,0,.988-1.465,10.167,10.167,0,0,0,.889-2.167q.217-.882.257-1.083V205.84a.317.317,0,0,1,.355-.362h3.279c.21,0,.316.12.316.362v2.126q.039.242.276,1.184a8.273,8.273,0,0,0,1.027,2.227,14.962,14.962,0,0,0,6.991,6.06q.315.161.158.441l-1.3,3.05a.345.345,0,0,1-.474.161,19.961,19.961,0,0,1-5.471-3.572A19.65,19.65,0,0,1,321.415,213.665Zm-3,19.623v2.087h20.975a.281.281,0,0,1,.316.321v2.929q0,.362-.316.361H317.109a2.548,2.548,0,0,1-1.916-.8,2.733,2.733,0,0,1-.77-1.966v-6.179q0-.362.317-.361h20.975V227.63H314.739q-.317,0-.317-.361v-2.93a.282.282,0,0,1,.317-.321h22.278a2.58,2.58,0,0,1,1.916.782,2.665,2.665,0,0,1,.77,1.947v6.22a.281.281,0,0,1-.316.321Zm25.162-21.87q.355,0,.355.321v3.17q0,.321-.355.321H339.7v6.7q0,.361-.316.361H336.03c-.212,0-.316-.12-.316-.361V205.279a.281.281,0,0,1,.316-.322h3.357a.282.282,0,0,1,.316.322v6.139Z" transform="translate(-310.934 -204.957)"/><path class="a" d="M406.272,225.542c.237,0,.356.108.356.321v3.131a.317.317,0,0,1-.356.361H393.79v9.754a.315.315,0,0,1-.352.361h-3.286a.315.315,0,0,1-.352-.361v-9.754H377.279c-.212,0-.316-.12-.316-.361v-3.131a.282.282,0,0,1,.316-.321Zm-27.018-19.226q0-.362.316-.362h22.12a2.549,2.549,0,0,1,1.916.8,2.684,2.684,0,0,1,.77,1.926V221.97c0,.241-.106.361-.316.361H400.7c-.212,0-.316-.12-.316-.361V210.008H379.57q-.316,0-.316-.361Z" transform="translate(-342.979 -205.441)"/><path class="a" d="M457.541,205.519a2.562,2.562,0,0,1,1.892.8,2.643,2.643,0,0,1,.789,1.923v25.409a2.627,2.627,0,0,1-.789,1.944,2.593,2.593,0,0,1-1.892.782H444.494a2.575,2.575,0,0,1-1.912-.782,2.662,2.662,0,0,1-.768-1.944V208.244a2.678,2.678,0,0,1,.768-1.923,2.544,2.544,0,0,1,1.912-.8Zm-1.308,3.812H445.8v23.234h10.428Zm16.666,9.43a.376.376,0,0,1,.238.1.32.32,0,0,1,.12.258v3.1a.32.32,0,0,1-.12.258.373.373,0,0,1-.238.1h-3.907v16.051a.315.315,0,0,1-.352.361h-3.286a.315.315,0,0,1-.352-.361V205.279q0-.322.352-.322h3.286q.352,0,.352.322v13.482Z" transform="translate(-374.453 -204.957)"/><path class="a" d="M521.094,213.424a20.467,20.467,0,0,1-1.6,2.99,17.252,17.252,0,0,1-2.529,3.069,19.5,19.5,0,0,1-3.634,2.749,21.727,21.727,0,0,1-4.918,2.107.331.331,0,0,1-.434-.241l-.869-3.21a.292.292,0,0,1,.237-.4,16.5,16.5,0,0,0,7.228-4.254h-6.4a.317.317,0,0,1-.356-.361v-3.09c0-.214.119-.321.356-.321l9.006-.04a2.68,2.68,0,0,1,.157-.337q.079-.139.159-.3a20.042,20.042,0,0,0,.789-2.3H508.177c-.237,0-.356-.106-.356-.321v-3.33a.317.317,0,0,1,.356-.362H519.87a2.619,2.619,0,0,1,1.165.261,2.69,2.69,0,0,1,.908.723,2.817,2.817,0,0,1,.534,1.043,2.578,2.578,0,0,1,.039,1.184q-.2,1.044-.533,2.247A19.735,19.735,0,0,1,521.094,213.424Zm14.655,21.669q.316.08.237.442l-.988,3.17q-.158.321-.434.2a29.509,29.509,0,0,1-4.463-1.867,23.967,23.967,0,0,1-3.377-2.127,17.19,17.19,0,0,1-2.469-2.267,16.7,16.7,0,0,1-1.7-2.247,16.9,16.9,0,0,1-1.7,2.247,17.276,17.276,0,0,1-2.469,2.267,24.03,24.03,0,0,1-3.377,2.127,29.554,29.554,0,0,1-4.463,1.867q-.277.12-.435-.2l-.987-3.17q-.079-.362.237-.442a24.3,24.3,0,0,0,5.747-2.749,14.239,14.239,0,0,0,3.89-3.752,9.376,9.376,0,0,0,1.126-2.127,10.6,10.6,0,0,0,.415-1.4q.079-.28.316-.28h3.4c.158,0,.263.094.316.28a10.454,10.454,0,0,0,.415,1.4,9.34,9.34,0,0,0,1.126,2.127,14.232,14.232,0,0,0,3.89,3.752A24.3,24.3,0,0,0,535.749,235.094Zm-13.47-21.83q0-.362.319-.361h3.948v-7.584a.315.315,0,0,1,.352-.361h3.286a.315.315,0,0,1,.352.361v19.021q0,.322-.352.321H526.9q-.352,0-.352-.321v-7.625H522.6a.283.283,0,0,1-.319-.321Zm13.986-8.307a.315.315,0,0,1,.352.361v19.021q0,.322-.352.321H532.98q-.351,0-.352-.321V205.318a.315.315,0,0,1,.352-.361Z" transform="translate(-406.135 -204.957)"/></g><g transform="translate(279.035 204.957)"><g transform="translate(0)"><path class="a" d="M321.994,204.969l-.011-.012c-.114.13-.236.259-.362.384Z" transform="translate(-321.621 -204.957)"/></g></g></g></svg>