<svg id="레이어_1" data-name="레이어 1" xmlns="http://www.w3.org/2000/svg" viewBox="0 0 510.24 100.45"><defs><style>.cls-1{fill:#fff;}</style></defs><path class="cls-1" d="M40.63,28.54v.05c.52,0,1-.05,1.59-.05Z" transform="translate(0 -0.33)"/><path class="cls-1" d="M78,71.82a40.86,40.86,0,0,1-9.3.63,29.32,29.32,0,0,1-7.21,8.89c-.29.25-.58.47-.87.7a10.11,10.11,0,0,1-1.1.82l-.29.21c-.49.34-1,.66-1.49,1s-.84.5-1.26.73-1.08.56-1.63.82c-.32.16-.66.31-1,.44a28.14,28.14,0,0,1-2.75,1,25.41,25.41,0,0,1-2.85.75,26.58,26.58,0,0,1-3,.45,28.11,28.11,0,0,1-3.06.16h0A29.92,29.92,0,0,1,28.27,32a29,29,0,0,1,0-3.49,38.61,38.61,0,0,1,.63-5.85A38.39,38.39,0,0,1,30,18a41.64,41.64,0,0,0-11.87,5.72v0a42.25,42.25,0,0,0,0,69.42v7.55h24.1a42.29,42.29,0,0,0,40.46-30A47.84,47.84,0,0,1,78,71.82Z" transform="translate(0 -0.33)"/><path class="cls-1" d="M84.5,56.69A42.31,42.31,0,0,0,44,16.24a22.64,22.64,0,0,1,1.45-2.46,24.25,24.25,0,0,1,1.78-2.42,27.2,27.2,0,0,1,2-2.27l0,0,0,0L40.59.37h0A41.68,41.68,0,0,0,30,18a38.39,38.39,0,0,0-1.13,4.68,38.61,38.61,0,0,0-.63,5.85,29,29,0,0,0,0,3.49A42.18,42.18,0,0,0,68.72,72.45a40.86,40.86,0,0,0,9.3-.63,47.84,47.84,0,0,0,4.7-1.11,42,42,0,0,0,1.81-12.24C84.53,57.87,84.51,57.27,84.5,56.69ZM49.3,51.41a29.68,29.68,0,0,1-8.67-22.82v-.05h1.63a28.11,28.11,0,0,1,3.06.16,26.58,26.58,0,0,1,3,.45,27.72,27.72,0,0,1,2.85.74,28.2,28.2,0,0,1,2.75,1c.32.13.66.28,1,.44.55.26,1.1.53,1.63.82s.86.47,1.26.73,1,.63,1.49,1l.29.21a10.11,10.11,0,0,1,1.1.82l.87.69A29.72,29.72,0,0,1,72.19,58.47c0,.55,0,1.08,0,1.61A29.7,29.7,0,0,1,49.3,51.41Z" transform="translate(0 -0.33)"/><path class="cls-1" d="M150.37,26A54.08,54.08,0,0,1,140.9,37.4a60.92,60.92,0,0,1-16.47,10.54c-.55.32-1,.16-1.3-.47l-4-9c-.32-.55-.16-1,.47-1.31a53.37,53.37,0,0,0,8.12-4.56,53.77,53.77,0,0,0,6-4.79,38.08,38.08,0,0,0,4.32-4.68,41,41,0,0,0,3-4.33,29.37,29.37,0,0,0,2.67-6.39c.43-1.74.69-2.81.77-3.2V2.93a.94.94,0,0,1,1.06-1.07h9.84c.63,0,.94.36.94,1.07V9.21c.08.47.36,1.64.83,3.49a24.54,24.54,0,0,0,3.08,6.58q6.63,11.37,21,17.88c.63.32.79.76.47,1.31l-3.91,9a1,1,0,0,1-1.42.47,59.68,59.68,0,0,1-16.4-10.54A58.24,58.24,0,0,1,150.37,26Zm-9,57.93v6.15h62.9a.84.84,0,0,1,.95,1v8.65c0,.71-.32,1.07-.95,1.07H137.46a7.75,7.75,0,0,1-5.75-2.37,8,8,0,0,1-2.31-5.81V74.36c0-.71.32-1.07.95-1.07h62.9v-6h-62.9c-.63,0-.95-.35-.95-1.06V57.54a.84.84,0,0,1,.95-.95h66.81a7.89,7.89,0,0,1,8.06,8.06V83a.84.84,0,0,1-.95.95ZM216.82,19.4c.72,0,1.07.31,1.07.94V29.7c0,.63-.35.95-1.07.95h-11.6V50.43c0,.71-.32,1.07-.95,1.07H194.2c-.63,0-.95-.36-.95-1.07V1.27a.84.84,0,0,1,.95-.94h10.07a.84.84,0,0,1,.95.94V19.4Z" transform="translate(0 -0.33)"/><path class="cls-1" d="M308.75,59.67c.71,0,1.06.32,1.06.95v9.24a.93.93,0,0,1-1.06,1.06H271.31V99.71a.94.94,0,0,1-1.05,1.07H260.4a.94.94,0,0,1-1-1.07V70.92H221.8c-.63,0-1-.35-1-1.06V60.62a.84.84,0,0,1,1-.95Zm-81-56.74c0-.71.32-1.07.95-1.07H295a7.7,7.7,0,0,1,5.74,2.37,7.87,7.87,0,0,1,2.31,5.69V49.13c0,.71-.32,1.06-.95,1.06H292c-.63,0-.94-.35-.94-1.06V13.83H228.67c-.63,0-.95-.36-.95-1.07Z" transform="translate(0 -0.33)"/><path class="cls-1" d="M368.11,2a7.74,7.74,0,0,1,5.67,2.37A7.74,7.74,0,0,1,376.15,10V85a7.69,7.69,0,0,1-2.37,5.74,7.84,7.84,0,0,1-5.67,2.31H329a7.88,7.88,0,0,1-8-8V10a7.84,7.84,0,0,1,2.3-5.68A7.68,7.68,0,0,1,329,2Zm-3.93,11.26H332.91V81.82h31.27Zm50,27.83a1.13,1.13,0,0,1,.72.3.93.93,0,0,1,.36.76v9.14a.93.93,0,0,1-.36.76,1.13,1.13,0,0,1-.72.3H402.44V99.71a.94.94,0,0,1-1.05,1.07h-9.86a.94.94,0,0,1-1-1.07V1.27c0-.63.35-.94,1-.94h9.86c.7,0,1.05.31,1.05.94v39.8Z" transform="translate(0 -0.33)"/><path class="cls-1" d="M463.68,25.32a59.65,59.65,0,0,1-4.79,8.82,51.68,51.68,0,0,1-7.59,9.07,58.66,58.66,0,0,1-10.89,8.11,65.77,65.77,0,0,1-14.75,6.22,1,1,0,0,1-1.3-.71l-2.61-9.48a.86.86,0,0,1,.71-1.18,49.66,49.66,0,0,0,21.68-12.56H425a.94.94,0,0,1-1.07-1.07V23.42c0-.63.36-.94,1.07-.94l27-.12a7.27,7.27,0,0,1,.47-1c.16-.27.31-.56.47-.87a56.9,56.9,0,0,0,2.37-6.78H425c-.71,0-1.07-.31-1.07-1V2.93A1,1,0,0,1,425,1.86H460a7.89,7.89,0,0,1,6.22,2.91,8.25,8.25,0,0,1,1.6,3.08,7.61,7.61,0,0,1,.12,3.49q-.6,3.09-1.6,6.63A56.81,56.81,0,0,1,463.68,25.32Zm43.95,64c.63.16.87.6.71,1.31l-3,9.36c-.32.63-.75.83-1.3.59A89.92,89.92,0,0,1,490.69,95a72,72,0,0,1-10.13-6.28,51.42,51.42,0,0,1-7.4-6.69,50,50,0,0,1-5.09-6.63,50.09,50.09,0,0,1-5.1,6.63,51.42,51.42,0,0,1-7.4,6.69A72,72,0,0,1,445.44,95a90.22,90.22,0,0,1-13.38,5.51c-.56.24-1,0-1.31-.59l-3-9.36c-.16-.71.08-1.15.71-1.31a73.33,73.33,0,0,0,17.24-8.11A42.58,42.58,0,0,0,457.4,70.1a27.64,27.64,0,0,0,3.38-6.28A31.52,31.52,0,0,0,462,59.67a1,1,0,0,1,.94-.83h10.19a1,1,0,0,1,.95.83,29.6,29.6,0,0,0,1.24,4.15,27.64,27.64,0,0,0,3.38,6.28,42.58,42.58,0,0,0,11.66,11.07A73.52,73.52,0,0,0,507.63,89.28ZM467.24,24.85c0-.72.31-1.07.95-1.07H480V1.39A.93.93,0,0,1,481.08.33h9.86A.93.93,0,0,1,492,1.39V57.54c0,.63-.35,1-1.05,1h-9.86c-.7,0-1.05-.32-1.05-1V35H468.19a.83.83,0,0,1-.95-1ZM509.18.33a.94.94,0,0,1,1.06,1.06V57.54c0,.63-.36,1-1.06,1h-9.85c-.71,0-1.06-.32-1.06-1V1.39A.93.93,0,0,1,499.33.33Z" transform="translate(0 -0.33)"/><path class="cls-1" d="M136.55.36l0,0c-.34.38-.71.77-1.09,1.15Z" transform="translate(0 -0.33)"/></svg>